<?xml version="1.0" encoding="UTF-8"?>
<!DOCTYPE svg PUBLIC "-//W3C//DTD SVG 1.1//EN" "http://www.w3.org/Graphics/SVG/1.1/DTD/svg11.dtd">
<svg xmlns="http://www.w3.org/2000/svg" version="1.1" width="500px" height="500px" style="shape-rendering:geometricPrecision; text-rendering:geometricPrecision; image-rendering:optimizeQuality; fill-rule:evenodd; clip-rule:evenodd" xmlns:xlink="http://www.w3.org/1999/xlink">
<g><path style="opacity:1" fill="#231f20" d="M -0.5,-0.5 C 166.167,-0.5 332.833,-0.5 499.5,-0.5C 499.5,166.167 499.5,332.833 499.5,499.5C 332.833,499.5 166.167,499.5 -0.5,499.5C -0.5,332.833 -0.5,166.167 -0.5,-0.5 Z"/></g>
<g><path style="opacity:1" fill="#f7f6f5" d="M 107.5,156.5 C 123.5,156.5 139.5,156.5 155.5,156.5C 161.009,178.203 166.676,199.87 172.5,221.5C 158.167,221.5 143.833,221.5 129.5,221.5C 125.276,202.938 120.276,184.604 114.5,166.5C 108.722,184.613 103.722,202.946 99.5,221.5C 97.8333,221.5 96.1667,221.5 94.5,221.5C 98.368,204.029 102.868,186.696 108,169.5C 108.706,165.113 108.54,160.78 107.5,156.5 Z"/></g>
<g><path style="opacity:1" fill="#f8f6f5" d="M 226.5,156.5 C 242.17,156.333 257.837,156.5 273.5,157C 283.256,178.342 292.589,199.842 301.5,221.5C 286.83,221.667 272.163,221.5 257.5,221C 249.871,204.241 242.371,187.408 235,170.5C 234.5,187.497 234.333,204.497 234.5,221.5C 232.833,221.5 231.167,221.5 229.5,221.5C 229.609,199.757 228.609,178.09 226.5,156.5 Z"/></g>
<g><path style="opacity:1" fill="#f7f6f5" d="M 394.5,221.5 C 394.667,203.83 394.5,186.164 394,168.5C 393.487,169.527 392.987,170.527 392.5,171.5C 386.129,188.113 379.462,204.613 372.5,221C 370.5,221.667 368.5,221.667 366.5,221C 375.719,200.013 384.553,178.846 393,157.5C 407.421,156.51 421.921,156.176 436.5,156.5C 434.776,178.124 434.11,199.791 434.5,221.5C 421.167,221.5 407.833,221.5 394.5,221.5 Z"/></g>
<g><path style="opacity:1" fill="#787575" d="M 394.5,221.5 C 393.833,204.833 393.167,188.167 392.5,171.5C 392.987,170.527 393.487,169.527 394,168.5C 394.5,186.164 394.667,203.83 394.5,221.5 Z"/></g>
<g><path style="opacity:1" fill="#cab1aa" d="M 65.5,241.5 C 67.4023,244.337 68.069,247.671 67.5,251.5C 69.288,251.215 70.9547,251.548 72.5,252.5C 70.2573,253.474 67.924,253.808 65.5,253.5C 65.5,249.5 65.5,245.5 65.5,241.5 Z"/></g>
<g><path style="opacity:1" fill="#c5aca5" d="M 87.5,241.5 C 90.5719,241.183 93.5719,241.516 96.5,242.5C 94.2573,243.474 91.924,243.808 89.5,243.5C 89.5,244.5 89.5,245.5 89.5,246.5C 97.5,247.167 97.5,247.833 89.5,248.5C 89.5,249.5 89.5,250.5 89.5,251.5C 91.924,251.192 94.2573,251.526 96.5,252.5C 93.5719,253.484 90.5719,253.817 87.5,253.5C 87.5,249.5 87.5,245.5 87.5,241.5 Z"/></g>
<g><path style="opacity:1" fill="#c2aaa3" d="M 136.5,241.5 C 138.467,241.261 140.301,241.594 142,242.5C 142.688,243.332 142.521,243.998 141.5,244.5C 140.264,243.754 138.93,243.421 137.5,243.5C 137.5,244.5 137.5,245.5 137.5,246.5C 143.078,246.525 144.411,248.691 141.5,253C 139.231,253.758 137.064,253.591 135,252.5C 134.312,251.668 134.479,251.002 135.5,250.5C 137.198,251.681 138.865,251.681 140.5,250.5C 138.78,249.08 136.946,247.747 135,246.5C 134.387,244.505 134.887,242.838 136.5,241.5 Z"/></g>
<g><path style="opacity:1" fill="#847370" d="M 315.5,242.5 C 316.209,241.596 317.209,241.263 318.5,241.5C 318.817,245.702 318.483,249.702 317.5,253.5C 318.08,249.351 317.414,245.684 315.5,242.5 Z"/></g>
<g><path style="opacity:1" fill="#867571" d="M 367.5,242.5 C 365.5,242.5 363.5,242.5 361.5,242.5C 361.5,246.167 361.5,249.833 361.5,253.5C 360.517,249.702 360.183,245.702 360.5,241.5C 363.059,241.198 365.393,241.532 367.5,242.5 Z"/></g>
<g><path style="opacity:1" fill="#c6ada6" d="M 367.5,242.5 C 368.496,242.414 369.329,242.748 370,243.5C 370.839,246.14 370.339,248.473 368.5,250.5C 368.977,251.478 369.643,252.311 370.5,253C 368.27,252.22 365.937,251.387 363.5,250.5C 363.715,252.179 363.048,253.179 361.5,253.5C 361.5,249.833 361.5,246.167 361.5,242.5C 363.5,242.5 365.5,242.5 367.5,242.5 Z"/></g>
<g><path style="opacity:1" fill="#625554" d="M 393.5,242.5 C 391.167,242.5 388.833,242.5 386.5,242.5C 386.5,246.167 386.5,249.833 386.5,253.5C 385.517,249.702 385.183,245.702 385.5,241.5C 388.385,241.194 391.052,241.527 393.5,242.5 Z"/></g>
<g><path style="opacity:1" fill="#cbb1aa" d="M 393.5,242.5 C 394.458,242.953 395.292,243.619 396,244.5C 397.515,252.037 394.348,255.037 386.5,253.5C 386.5,249.833 386.5,246.167 386.5,242.5C 388.833,242.5 391.167,242.5 393.5,242.5 Z"/></g>
<g><path style="opacity:1" fill="#b9a19b" d="M 412.5,241.5 C 413.794,243.048 414.461,245.048 414.5,247.5C 414.167,249.5 413.833,251.5 413.5,253.5C 412.509,249.555 412.176,245.555 412.5,241.5 Z"/></g>
<g><path style="opacity:1" fill="#ccb2ab" d="M 456.5,241.5 C 457.794,243.048 458.461,245.048 458.5,247.5C 458.167,249.5 457.833,251.5 457.5,253.5C 456.509,249.555 456.176,245.555 456.5,241.5 Z"/></g>
<g><path style="opacity:1" fill="#c8afa8" d="M 337.5,241.5 C 345.957,242.437 347.624,246.27 342.5,253C 336.166,254.329 333.332,251.829 334,245.5C 334.69,243.65 335.856,242.316 337.5,241.5 Z"/></g>
<g><path style="opacity:1" fill="#2c2728" d="M 338.5,243.5 C 343.262,244.092 344.596,246.592 342.5,251C 337.502,252.33 335.336,250.496 336,245.5C 336.995,244.934 337.828,244.267 338.5,243.5 Z"/></g>
<g><path style="opacity:1" fill="#3d3635" d="M 362.5,243.5 C 364.199,243.34 365.866,243.506 367.5,244C 368.833,245.333 368.833,246.667 367.5,248C 365.866,248.494 364.199,248.66 362.5,248.5C 362.5,246.833 362.5,245.167 362.5,243.5 Z"/></g>
<g><path style="opacity:1" fill="#282324" d="M 388.5,243.5 C 393.984,243.481 395.65,245.981 393.5,251C 391.866,251.494 390.199,251.66 388.5,251.5C 388.5,248.833 388.5,246.167 388.5,243.5 Z"/></g>
<g><path style="opacity:1" fill="#ccb2ab" d="M 430.5,241.5 C 432.017,241.511 433.184,242.177 434,243.5C 435.333,245.5 436.667,247.5 438,249.5C 438.182,246.774 438.682,244.107 439.5,241.5C 440.833,245.5 440.833,249.5 439.5,253.5C 436.878,251.589 434.711,249.255 433,246.5C 432.814,248.9 432.314,251.234 431.5,253.5C 430.509,249.555 430.176,245.555 430.5,241.5 Z"/></g>
<g><path style="opacity:1" fill="#ccb2ab" d="M 210.5,241.5 C 216.331,240.186 219.998,242.353 221.5,248C 221.561,249.711 220.894,251.044 219.5,252C 216.649,253.289 213.649,253.789 210.5,253.5C 210.5,249.5 210.5,245.5 210.5,241.5 Z"/></g>
<g><path style="opacity:1" fill="#2d2828" d="M 212.5,243.5 C 219.068,243.192 220.734,245.692 217.5,251C 215.866,251.494 214.199,251.66 212.5,251.5C 212.5,248.833 212.5,246.167 212.5,243.5 Z"/></g>
<g><path style="opacity:1" fill="#c1a9a2" d="M 264.5,241.5 C 268.273,240.822 271.106,242.156 273,245.5C 273.929,250.629 271.763,253.296 266.5,253.5C 262.876,253.21 260.876,251.21 260.5,247.5C 261.432,245.235 262.765,243.235 264.5,241.5 Z"/></g>
<g><path style="opacity:1" fill="#2d2828" d="M 265.5,243.5 C 270.262,244.092 271.596,246.592 269.5,251C 262.17,251.486 260.837,248.986 265.5,243.5 Z"/></g>
<g><path style="opacity:1" fill="#c0a8a2" d="M 43.5,241.5 C 44.5,241.5 45.5,241.5 46.5,241.5C 47.5345,245.243 48.8678,248.91 50.5,252.5C 50.1667,252.833 49.8333,253.167 49.5,253.5C 48.2159,252.415 46.7159,251.748 45,251.5C 42.7756,252.261 40.6089,252.761 38.5,253C 40.6547,249.366 42.3214,245.533 43.5,241.5 Z"/></g>
<g><path style="opacity:1" fill="#cbb2aa" d="M 113.5,241.5 C 115.827,241.247 117.827,241.914 119.5,243.5C 111.9,243.657 111.733,245.324 119,248.5C 119.72,250.112 119.554,251.612 118.5,253C 115.534,253.895 112.867,253.395 110.5,251.5C 112.741,251.502 115.074,251.168 117.5,250.5C 115.204,249.181 113.204,247.514 111.5,245.5C 111.752,243.927 112.418,242.594 113.5,241.5 Z"/></g>
<g><path style="opacity:1" fill="#c5aca5" d="M 162.5,241.5 C 163.496,241.414 164.329,241.748 165,242.5C 166.371,246.073 167.871,249.573 169.5,253C 167.658,252.421 165.658,251.921 163.5,251.5C 161.519,251.437 159.852,252.104 158.5,253.5C 158.761,249.382 160.094,245.382 162.5,241.5 Z"/></g>
<g><path style="opacity:1" fill="#594e4c" d="M 44.5,244.5 C 45.339,245.641 46.0057,246.974 46.5,248.5C 45.1667,249.833 43.8333,249.833 42.5,248.5C 43.6302,247.378 44.2969,246.044 44.5,244.5 Z"/></g>
<g><path style="opacity:1" fill="#5b4f4e" d="M 162.5,245.5 C 166.829,248.478 166.496,249.478 161.5,248.5C 162.127,247.583 162.461,246.583 162.5,245.5 Z"/></g>
<g><path style="opacity:1" fill="#c9afa8" d="M 236.5,241.5 C 242.986,239.835 245.819,242.168 245,248.5C 243.372,249.819 243.539,251.152 245.5,252.5C 245.167,252.833 244.833,253.167 244.5,253.5C 243.049,251.441 241.049,250.441 238.5,250.5C 238.719,251.675 238.386,252.675 237.5,253.5C 236.509,249.555 236.176,245.555 236.5,241.5 Z"/></g>
<g><path style="opacity:1" fill="#302b2b" d="M 238.5,243.5 C 242.676,242.831 244.009,244.331 242.5,248C 241.207,248.49 239.873,248.657 238.5,248.5C 238.5,246.833 238.5,245.167 238.5,243.5 Z"/></g>
<g><path style="opacity:1" fill="#cbb2aa" d="M 315.5,242.5 C 317.414,245.684 318.08,249.351 317.5,253.5C 316.683,251.031 316.183,248.365 316,245.5C 313.065,254.654 310.398,254.654 308,245.5C 307.818,248.226 307.318,250.893 306.5,253.5C 305.509,249.555 305.176,245.555 305.5,241.5C 306.675,241.281 307.675,241.614 308.5,242.5C 309.414,244.664 310.581,246.664 312,248.5C 313.431,246.636 314.597,244.636 315.5,242.5 Z"/></g>
<g><path style="opacity:1" fill="#c8afa8" d="M 192.5,241.5 C 194.423,245.029 195.089,249.029 194.5,253.5C 191.279,252.118 188.779,249.785 187,246.5C 186.814,248.9 186.314,251.234 185.5,253.5C 184.511,249.893 184.177,246.226 184.5,242.5C 187.721,243.882 190.221,246.215 192,249.5C 192.497,246.854 192.664,244.187 192.5,241.5 Z"/></g>
<g><path style="opacity:1" fill="#f5f4f3" d="M 79.5,274.5 C 115.506,274.167 151.506,274.5 187.5,275.5C 192.099,291.466 196.599,307.466 201,323.5C 203.28,330.727 206.113,337.727 209.5,344.5C 193.514,345.499 177.514,345.833 161.5,345.5C 161.595,340.113 161.095,334.78 160,329.5C 155.308,312.537 150.808,295.537 146.5,278.5C 125.497,278.333 104.497,278.5 83.5,279C 78.2106,297.77 73.0439,316.604 68,335.5C 67.5017,338.817 67.335,342.15 67.5,345.5C 64.1501,345.665 60.8168,345.498 57.5,345C 60.7777,339.171 63.2777,333.004 65,326.5C 69.5419,309.047 74.3753,291.713 79.5,274.5 Z"/></g>
<g><path style="opacity:1" fill="#f1f0ef" d="M 229.5,274.5 C 231.167,274.5 232.833,274.5 234.5,274.5C 234.133,298.204 234.8,321.871 236.5,345.5C 233.167,345.5 229.833,345.5 226.5,345.5C 228.919,321.9 229.919,298.234 229.5,274.5 Z"/></g>
<g><path style="opacity:1" fill="#f8f7f6" d="M 280.5,274.5 C 295.833,274.5 311.167,274.5 326.5,274.5C 328.909,281.72 331.909,288.72 335.5,295.5C 338.498,288.843 341.498,282.177 344.5,275.5C 346.765,274.353 349.098,274.186 351.5,275C 341.167,300 330.833,325 320.5,350C 318.167,350.667 315.833,350.667 313.5,350C 302.359,324.886 291.359,299.719 280.5,274.5 Z"/></g>
<g><path style="opacity:1" fill="#f8f7f6" d="M 394.5,274.5 C 407.833,274.5 421.167,274.5 434.5,274.5C 434.095,298.206 434.762,321.873 436.5,345.5C 421.833,345.5 407.167,345.5 392.5,345.5C 394.065,321.873 394.732,298.206 394.5,274.5 Z"/></g>
</svg>
