<?xml version="1.0" encoding="UTF-8"?>
<!DOCTYPE svg PUBLIC "-//W3C//DTD SVG 1.1//EN" "http://www.w3.org/Graphics/SVG/1.1/DTD/svg11.dtd">
<svg xmlns="http://www.w3.org/2000/svg" version="1.1" width="400px" height="400px" style="shape-rendering:geometricPrecision; text-rendering:geometricPrecision; image-rendering:optimizeQuality; fill-rule:evenodd; clip-rule:evenodd" xmlns:xlink="http://www.w3.org/1999/xlink">
<g><path style="opacity:1" fill="#fefefe" d="M -0.5,-0.5 C 132.833,-0.5 266.167,-0.5 399.5,-0.5C 399.5,132.833 399.5,266.167 399.5,399.5C 368.5,399.5 337.5,399.5 306.5,399.5C 306.291,398.078 305.791,396.745 305,395.5C 295.225,385.567 286.058,375.234 277.5,364.5C 275.14,360.403 271.974,357.069 268,354.5C 266.87,341.374 267.537,328.374 270,315.5C 272.803,308.903 275.303,302.236 277.5,295.5C 280.107,293.586 282.107,291.252 283.5,288.5C 285.042,289.301 286.708,289.634 288.5,289.5C 290.265,290.461 292.265,290.795 294.5,290.5C 294.392,286.753 294.892,283.086 296,279.5C 298.998,277.667 301.498,275.334 303.5,272.5C 303.5,270.5 304.5,269.5 306.5,269.5C 310.11,272.101 313.777,271.934 317.5,269C 322.774,265.726 326.608,261.226 329,255.5C 329.236,250.659 328.403,245.992 326.5,241.5C 323.225,239.786 320.892,240.619 319.5,244C 317.655,245.128 315.655,245.628 313.5,245.5C 313.5,244.167 313.5,242.833 313.5,241.5C 317.226,235.053 320.726,228.386 324,221.5C 324.499,216.177 324.666,210.844 324.5,205.5C 330.259,201.109 336.259,196.943 342.5,193C 344.765,191.242 346.432,189.075 347.5,186.5C 348.622,184.712 348.789,182.712 348,180.5C 347.31,179.262 346.81,179.262 346.5,180.5C 344.814,182.016 342.981,183.35 341,184.5C 339.415,183.956 337.915,183.289 336.5,182.5C 338.402,178.317 341.735,176.651 346.5,177.5C 346.5,176.167 346.5,174.833 346.5,173.5C 342.563,173.793 338.73,173.46 335,172.5C 335.476,167.049 336.809,161.716 339,156.5C 339.92,149.724 339.586,143.057 338,136.5C 337.311,135.643 336.478,134.977 335.5,134.5C 332.8,136.234 330.8,138.568 329.5,141.5C 328.264,142.246 326.93,142.579 325.5,142.5C 326.248,134.05 325.248,125.883 322.5,118C 323.923,115.791 325.589,113.791 327.5,112C 327.095,111.055 326.428,110.388 325.5,110C 321.558,109.007 317.558,108.34 313.5,108C 313.043,107.586 312.709,107.086 312.5,106.5C 316.919,103.588 320.919,100.088 324.5,96C 326.809,95.2438 328.809,95.7438 330.5,97.5C 331.836,93.8313 330.669,91.1646 327,89.5C 323.078,92.2114 319.244,95.0447 315.5,98C 313.833,98.6667 312.167,98.6667 310.5,98C 305.593,83.5423 300.759,69.0423 296,54.5C 291.703,49.3855 287.536,44.2188 283.5,39C 279.845,38.3589 276.345,38.8589 273,40.5C 271.092,40.2849 269.926,39.2849 269.5,37.5C 270.167,36.8333 270.833,36.1667 271.5,35.5C 271.543,31.267 270.21,27.6004 267.5,24.5C 267.44,23.9569 267.107,23.6236 266.5,23.5C 265.832,25.9688 265.165,28.3021 264.5,30.5C 262.466,29.4522 261.133,27.7855 260.5,25.5C 258.219,24.7234 256.052,23.7234 254,22.5C 254.905,15.7457 252.072,12.579 245.5,13C 243.676,13.66 242.343,14.8267 241.5,16.5C 235.742,18.2807 230.409,17.4474 225.5,14C 219.656,11.6937 213.989,12.027 208.5,15C 205.568,18.6054 202.068,21.4387 198,23.5C 197.055,23.0946 196.388,22.428 196,21.5C 195.74,17.7502 195.073,14.0836 194,10.5C 193.363,8.69692 192.197,7.36359 190.5,6.5C 187.54,11.5847 184.207,16.418 180.5,21C 177.426,20.7968 174.759,19.4634 172.5,17C 171.207,16.51 169.873,16.3433 168.5,16.5C 168.714,18.1439 168.38,19.6439 167.5,21C 165.043,22.5621 162.376,23.5621 159.5,24C 153.694,24.1206 148.027,24.9539 142.5,26.5C 134.872,23.4571 127.039,21.1238 119,19.5C 111.323,20.8912 104.156,23.5579 97.5,27.5C 93.1691,30.9981 89.3358,34.9981 86,39.5C 83.0557,46.3896 80.389,53.3896 78,60.5C 77.3333,63.5 77.3333,66.5 78,69.5C 79.5168,72.3432 81.0168,75.1766 82.5,78C 80.6668,80.3367 79.6668,83.0034 79.5,86C 80.0257,90.5448 81.5257,94.7115 84,98.5C 84.4983,103.519 84.3316,108.519 83.5,113.5C 82.6249,122.709 80.7915,131.709 78,140.5C 77.1419,152.24 77.6419,163.907 79.5,175.5C 79.5,176.833 79.5,178.167 79.5,179.5C 74.6367,179.181 69.97,179.514 65.5,180.5C 59.5457,180.243 54.0457,181.576 49,184.5C 48.5155,189.581 50.0155,193.915 53.5,197.5C 54.8361,199.01 56.0027,200.677 57,202.5C 60.7438,213.396 65.0771,224.063 70,234.5C 72.3722,236.703 74.5389,239.037 76.5,241.5C 78.8788,244.535 81.8788,246.869 85.5,248.5C 85.5,249.167 85.5,249.833 85.5,250.5C 85.3471,260.568 86.0137,270.568 87.5,280.5C 87.5,281.167 87.8333,281.5 88.5,281.5C 89.7058,293.581 93.0391,304.915 98.5,315.5C 100.321,324.139 103.988,331.806 109.5,338.5C 110.41,341.992 112.076,344.992 114.5,347.5C 115.795,351.423 117.628,355.09 120,358.5C 120.667,359.5 120.667,360.5 120,361.5C 102.039,373.643 84.5388,386.309 67.5,399.5C 44.8333,399.5 22.1667,399.5 -0.5,399.5C -0.5,266.167 -0.5,132.833 -0.5,-0.5 Z"/></g>
<g><path style="opacity:1" fill="#161616" d="M 241.5,16.5 C 240.047,17.8249 240.381,18.6582 242.5,19C 240.283,20.2754 237.949,21.2754 235.5,22C 236.167,22.3333 236.833,22.6667 237.5,23C 236.424,24.7261 236.257,26.5594 237,28.5C 240.076,31.9421 243.576,34.7755 247.5,37C 240.253,44.6669 236.087,53.8336 235,64.5C 233.274,66.5912 232.107,68.9245 231.5,71.5C 228.38,71.8739 227.046,73.7072 227.5,77C 228.29,81.6602 229.623,86.1602 231.5,90.5C 229.958,93.3966 228.958,96.23 228.5,99C 231.668,99.5823 232.001,100.582 229.5,102C 231.301,102.317 231.634,102.984 230.5,104C 232.723,105.611 234.056,107.778 234.5,110.5C 229.533,106.868 224.867,102.868 220.5,98.5C 223.114,98.7229 224.781,97.5562 225.5,95C 222.636,86.9712 217.303,81.4712 209.5,78.5C 210.497,78.5299 211.164,78.0299 211.5,77C 206.276,71.709 200.276,67.3757 193.5,64C 186.691,64.249 181.357,61.749 177.5,56.5C 176.037,49.0505 176.37,41.7171 178.5,34.5C 178.333,33.5 178.167,32.5 178,31.5C 175.957,29.792 174.29,27.792 173,25.5C 169.148,21.5055 165.981,22.0055 163.5,27C 163.527,29.3633 164.694,30.8633 167,31.5C 167.813,33.4357 168.313,35.4357 168.5,37.5C 163.162,38.0021 157.828,38.1688 152.5,38C 150.119,36.2344 147.452,35.0678 144.5,34.5C 143.636,32.8035 142.303,31.6368 140.5,31C 132.669,29.6199 124.836,29.4532 117,30.5C 114.681,29.291 112.181,28.4577 109.5,28C 105.052,28.1211 101.052,27.9544 97.5,27.5C 104.156,23.5579 111.323,20.8912 119,19.5C 127.039,21.1238 134.872,23.4571 142.5,26.5C 148.027,24.9539 153.694,24.1206 159.5,24C 162.376,23.5621 165.043,22.5621 167.5,21C 168.38,19.6439 168.714,18.1439 168.5,16.5C 169.873,16.3433 171.207,16.51 172.5,17C 174.759,19.4634 177.426,20.7968 180.5,21C 184.207,16.418 187.54,11.5847 190.5,6.5C 192.197,7.36359 193.363,8.69692 194,10.5C 195.073,14.0836 195.74,17.7502 196,21.5C 196.388,22.428 197.055,23.0946 198,23.5C 202.068,21.4387 205.568,18.6054 208.5,15C 213.989,12.027 219.656,11.6937 225.5,14C 230.409,17.4474 235.742,18.2807 241.5,16.5 Z"/></g>
<g><path style="opacity:1" fill="#070707" d="M 264.5,30.5 C 266.412,32.6572 268.079,34.9906 269.5,37.5C 269.926,39.2849 271.092,40.2849 273,40.5C 276.345,38.8589 279.845,38.3589 283.5,39C 287.536,44.2188 291.703,49.3855 296,54.5C 300.759,69.0423 305.593,83.5423 310.5,98C 312.167,98.6667 313.833,98.6667 315.5,98C 319.244,95.0447 323.078,92.2114 327,89.5C 330.669,91.1646 331.836,93.8313 330.5,97.5C 328.809,95.7438 326.809,95.2438 324.5,96C 320.919,100.088 316.919,103.588 312.5,106.5C 312.709,107.086 313.043,107.586 313.5,108C 317.558,108.34 321.558,109.007 325.5,110C 326.428,110.388 327.095,111.055 327.5,112C 325.589,113.791 323.923,115.791 322.5,118C 325.248,125.883 326.248,134.05 325.5,142.5C 326.93,142.579 328.264,142.246 329.5,141.5C 330.8,138.568 332.8,136.234 335.5,134.5C 336.478,134.977 337.311,135.643 338,136.5C 339.586,143.057 339.92,149.724 339,156.5C 336.809,161.716 335.476,167.049 335,172.5C 338.73,173.46 342.563,173.793 346.5,173.5C 346.5,174.833 346.5,176.167 346.5,177.5C 341.735,176.651 338.402,178.317 336.5,182.5C 333.481,185.679 329.814,187.846 325.5,189C 324.751,190.734 324.251,192.567 324,194.5C 323.667,193.5 323.333,192.5 323,191.5C 321.933,192.191 320.766,192.691 319.5,193C 320.5,193.333 321.5,193.667 322.5,194C 319.305,194.181 316.305,194.681 313.5,195.5C 312.833,195.5 312.167,195.5 311.5,195.5C 310.833,195.5 310.167,195.5 309.5,195.5C 309.062,195.565 308.728,195.399 308.5,195C 310.946,193.517 310.612,192.351 307.5,191.5C 305.335,191.553 303.169,191.886 301,192.5C 292.184,189.902 283.351,189.902 274.5,192.5C 273.228,192.43 272.062,192.097 271,191.5C 268.976,193.884 266.809,194.051 264.5,192C 264.798,185.607 265.465,179.107 266.5,172.5C 266.468,170.241 266.134,168.075 265.5,166C 268.116,163.579 268.116,162.079 265.5,161.5C 266.167,160.5 266.833,159.5 267.5,158.5C 266.871,152.369 266.205,146.369 265.5,140.5C 264.019,137.353 262.852,134.019 262,130.5C 260.833,129.333 259.667,128.167 258.5,127C 250.26,121.724 242.26,116.224 234.5,110.5C 234.056,107.778 232.723,105.611 230.5,104C 231.634,102.984 231.301,102.317 229.5,102C 232.001,100.582 231.668,99.5823 228.5,99C 228.958,96.23 229.958,93.3966 231.5,90.5C 229.623,86.1602 228.29,81.6602 227.5,77C 227.046,73.7072 228.38,71.8739 231.5,71.5C 232.107,68.9245 233.274,66.5912 235,64.5C 236.087,53.8336 240.253,44.6669 247.5,37C 243.576,34.7755 240.076,31.9421 237,28.5C 236.257,26.5594 236.424,24.7261 237.5,23C 236.833,22.6667 236.167,22.3333 235.5,22C 237.949,21.2754 240.283,20.2754 242.5,19C 240.381,18.6582 240.047,17.8249 241.5,16.5C 242.343,14.8267 243.676,13.66 245.5,13C 252.072,12.579 254.905,15.7457 254,22.5C 256.052,23.7234 258.219,24.7234 260.5,25.5C 261.133,27.7855 262.466,29.4522 264.5,30.5 Z"/></g>
<g><path style="opacity:1" fill="#e3e3e3" d="M 247.5,18.5 C 249.252,18.4176 250.252,19.2509 250.5,21C 249.375,22.9626 248.041,24.796 246.5,26.5C 245.102,23.5647 245.435,20.8981 247.5,18.5 Z"/></g>
<g><path style="opacity:1" fill="#363636" d="M 209.5,78.5 C 204.59,75.2717 199.257,72.9383 193.5,71.5C 191.123,70.1127 188.457,69.2794 185.5,69C 170.061,68.9299 154.727,68.0965 139.5,66.5C 139.503,70.524 139.836,74.524 140.5,78.5C 140.596,80.9259 139.93,83.0926 138.5,85C 139.094,85.4643 139.761,85.631 140.5,85.5C 131.102,88.6933 123.102,94.1933 116.5,102C 107.301,104.53 100.468,110.03 96,118.5C 94.5638,122.98 93.0638,127.313 91.5,131.5C 89.274,124.219 87.1074,116.885 85,109.5C 84.79,111.058 84.29,112.391 83.5,113.5C 84.3316,108.519 84.4983,103.519 84,98.5C 81.5257,94.7115 80.0257,90.5448 79.5,86C 79.6668,83.0034 80.6668,80.3367 82.5,78C 81.0168,75.1766 79.5168,72.3432 78,69.5C 77.3333,66.5 77.3333,63.5 78,60.5C 80.389,53.3896 83.0557,46.3896 86,39.5C 89.3358,34.9981 93.1691,30.9981 97.5,27.5C 101.052,27.9544 105.052,28.1211 109.5,28C 112.181,28.4577 114.681,29.291 117,30.5C 124.836,29.4532 132.669,29.6199 140.5,31C 142.303,31.6368 143.636,32.8035 144.5,34.5C 147.452,35.0678 150.119,36.2344 152.5,38C 157.828,38.1688 163.162,38.0021 168.5,37.5C 168.313,35.4357 167.813,33.4357 167,31.5C 164.694,30.8633 163.527,29.3633 163.5,27C 165.981,22.0055 169.148,21.5055 173,25.5C 174.29,27.792 175.957,29.792 178,31.5C 178.167,32.5 178.333,33.5 178.5,34.5C 176.37,41.7171 176.037,49.0505 177.5,56.5C 181.357,61.749 186.691,64.249 193.5,64C 200.276,67.3757 206.276,71.709 211.5,77C 211.164,78.0299 210.497,78.5299 209.5,78.5 Z"/></g>
<g><path style="opacity:1" fill="#1d1d1d" d="M 267.5,24.5 C 270.21,27.6004 271.543,31.267 271.5,35.5C 269.917,34.0645 268.417,32.3978 267,30.5C 266.211,28.2884 266.378,26.2884 267.5,24.5 Z"/></g>
<g><path style="opacity:1" fill="#a7a7a7" d="M 267.5,24.5 C 266.378,26.2884 266.211,28.2884 267,30.5C 268.417,32.3978 269.917,34.0645 271.5,35.5C 270.833,36.1667 270.167,36.8333 269.5,37.5C 268.079,34.9906 266.412,32.6572 264.5,30.5C 265.165,28.3021 265.832,25.9688 266.5,23.5C 267.107,23.6236 267.44,23.9569 267.5,24.5 Z"/></g>
<g><path style="opacity:1" fill="#181818" d="M 127.5,36.5 C 128.833,36.5 130.167,36.5 131.5,36.5C 131.66,38.1992 131.494,39.8659 131,41.5C 126.657,46.5687 126.491,51.902 130.5,57.5C 128.794,62.7874 127.127,62.7874 125.5,57.5C 124.127,50.1816 124.793,43.1816 127.5,36.5 Z"/></g>
<g><path style="opacity:1" fill="#161616" d="M 193.5,71.5 C 182.241,69.8218 170.907,69.1552 159.5,69.5C 159.668,75.1706 162.335,79.1706 167.5,81.5C 170.306,82.1676 172.972,82.8343 175.5,83.5C 163.76,83.1417 152.093,83.8084 140.5,85.5C 139.761,85.631 139.094,85.4643 138.5,85C 139.93,83.0926 140.596,80.9259 140.5,78.5C 139.836,74.524 139.503,70.524 139.5,66.5C 154.727,68.0965 170.061,68.9299 185.5,69C 188.457,69.2794 191.123,70.1127 193.5,71.5 Z"/></g>
<g><path style="opacity:1" fill="#080808" d="M 193.5,71.5 C 199.257,72.9383 204.59,75.2717 209.5,78.5C 217.303,81.4712 222.636,86.9712 225.5,95C 224.781,97.5562 223.114,98.7229 220.5,98.5C 212.864,95.0166 205.197,91.5166 197.5,88C 190.259,85.9735 182.926,84.4735 175.5,83.5C 172.972,82.8343 170.306,82.1676 167.5,81.5C 162.335,79.1706 159.668,75.1706 159.5,69.5C 170.907,69.1552 182.241,69.8218 193.5,71.5 Z"/></g>
<g><path style="opacity:1" fill="#aaaaaa" d="M 175.5,83.5 C 182.926,84.4735 190.259,85.9735 197.5,88C 205.197,91.5166 212.864,95.0166 220.5,98.5C 224.867,102.868 229.533,106.868 234.5,110.5C 242.26,116.224 250.26,121.724 258.5,127C 259.667,128.167 260.833,129.333 262,130.5C 262.852,134.019 264.019,137.353 265.5,140.5C 266.15,148.76 265.316,156.76 263,164.5C 262.291,172.02 262.457,179.52 263.5,187C 263.325,188.658 262.658,189.991 261.5,191C 257.833,191.667 254.167,191.667 250.5,191C 238.338,188.048 226.005,186.548 213.5,186.5C 198.195,187.721 182.861,188.554 167.5,189C 162.977,190.797 158.31,191.964 153.5,192.5C 139.208,190.909 125.208,187.743 111.5,183C 103.527,181.504 95.5275,180.337 87.5,179.5C 86.5724,163.276 87.9057,147.276 91.5,131.5C 93.0638,127.313 94.5638,122.98 96,118.5C 100.468,110.03 107.301,104.53 116.5,102C 123.102,94.1933 131.102,88.6933 140.5,85.5C 152.093,83.8084 163.76,83.1417 175.5,83.5 Z"/></g>
<g><path style="opacity:1" fill="#a8a8a8" d="M 79.5,175.5 C 80.339,176.641 81.0057,177.974 81.5,179.5C 76.2079,180.495 70.8746,180.828 65.5,180.5C 69.97,179.514 74.6367,179.181 79.5,179.5C 79.5,178.167 79.5,176.833 79.5,175.5 Z"/></g>
<g><path style="opacity:1" fill="#151515" d="M 91.5,131.5 C 87.9057,147.276 86.5724,163.276 87.5,179.5C 95.5275,180.337 103.527,181.504 111.5,183C 125.208,187.743 139.208,190.909 153.5,192.5C 153.586,193.496 153.252,194.329 152.5,195C 159.167,195.667 159.167,196.333 152.5,197C 154.615,197.557 156.615,198.391 158.5,199.5C 163.344,198.535 167.677,199.702 171.5,203C 170.437,204.188 169.103,204.688 167.5,204.5C 167.5,205.5 167.5,206.5 167.5,207.5C 162.982,207.742 158.316,207.908 153.5,208C 157.926,208.747 160.093,211.247 160,215.5C 158.342,213.396 156.176,212.063 153.5,211.5C 151.97,211.64 150.97,212.307 150.5,213.5C 147.416,209.568 144.25,209.568 141,213.5C 135.353,223.795 130.519,234.461 126.5,245.5C 113.476,255.015 99.8098,256.015 85.5,248.5C 81.8788,246.869 78.8788,244.535 76.5,241.5C 77.2389,241.631 77.9056,241.464 78.5,241C 75.9194,238.84 75.9194,236.674 78.5,234.5C 76.9334,232.104 76.1001,229.437 76,226.5C 70.4262,224.945 68.9262,221.612 71.5,216.5C 71.1543,215.304 70.6543,215.304 70,216.5C 69.6338,208.041 68.4671,199.708 66.5,191.5C 62.8183,191.665 59.1516,191.499 55.5,191C 55,190.5 54.5,190 54,189.5C 53.9706,191.961 53.8039,194.628 53.5,197.5C 50.0155,193.915 48.5155,189.581 49,184.5C 54.0457,181.576 59.5457,180.243 65.5,180.5C 70.8746,180.828 76.2079,180.495 81.5,179.5C 81.0057,177.974 80.339,176.641 79.5,175.5C 77.6419,163.907 77.1419,152.24 78,140.5C 80.7915,131.709 82.6249,122.709 83.5,113.5C 84.29,112.391 84.79,111.058 85,109.5C 87.1074,116.885 89.274,124.219 91.5,131.5 Z"/></g>
<g><path style="opacity:1" fill="#5e5e5e" d="M 347.5,186.5 C 347.675,184.379 347.341,182.379 346.5,180.5C 346.81,179.262 347.31,179.262 348,180.5C 348.789,182.712 348.622,184.712 347.5,186.5 Z"/></g>
<g><path style="opacity:1" fill="#171717" d="M 346.5,180.5 C 347.341,182.379 347.675,184.379 347.5,186.5C 346.432,189.075 344.765,191.242 342.5,193C 336.259,196.943 330.259,201.109 324.5,205.5C 323.197,203.243 323.864,201.41 326.5,200C 325.934,199.005 325.267,198.172 324.5,197.5C 321.155,195.783 317.489,195.116 313.5,195.5C 316.305,194.681 319.305,194.181 322.5,194C 321.5,193.667 320.5,193.333 319.5,193C 320.766,192.691 321.933,192.191 323,191.5C 323.333,192.5 323.667,193.5 324,194.5C 324.251,192.567 324.751,190.734 325.5,189C 329.814,187.846 333.481,185.679 336.5,182.5C 337.915,183.289 339.415,183.956 341,184.5C 342.981,183.35 344.814,182.016 346.5,180.5 Z"/></g>
<g><path style="opacity:1" fill="#121212" d="M 265.5,140.5 C 266.205,146.369 266.871,152.369 267.5,158.5C 266.833,159.5 266.167,160.5 265.5,161.5C 268.116,162.079 268.116,163.579 265.5,166C 266.134,168.075 266.468,170.241 266.5,172.5C 265.465,179.107 264.798,185.607 264.5,192C 266.809,194.051 268.976,193.884 271,191.5C 272.062,192.097 273.228,192.43 274.5,192.5C 283.351,189.902 292.184,189.902 301,192.5C 303.169,191.886 305.335,191.553 307.5,191.5C 310.612,192.351 310.946,193.517 308.5,195C 308.728,195.399 309.062,195.565 309.5,195.5C 306.347,200.093 303.847,205.093 302,210.5C 299.229,212.402 296.396,214.236 293.5,216C 292.418,217.33 291.751,218.83 291.5,220.5C 290.655,221.671 289.989,223.005 289.5,224.5C 284.562,231.046 281.229,238.38 279.5,246.5C 278.596,247.209 278.263,248.209 278.5,249.5C 277.325,249.719 276.325,249.386 275.5,248.5C 273.87,246.229 272.537,243.896 271.5,241.5C 267.52,231.196 266.354,220.529 268,209.5C 264.737,203.968 259.904,201.468 253.5,202C 251.71,205.749 249.543,209.249 247,212.5C 244.135,221.43 241.468,230.43 239,239.5C 235.5,249.667 228.667,256.5 218.5,260C 191.807,265.232 171.974,256.065 159,232.5C 156.014,226.197 153.181,219.864 150.5,213.5C 150.97,212.307 151.97,211.64 153.5,211.5C 156.176,212.063 158.342,213.396 160,215.5C 160.093,211.247 157.926,208.747 153.5,208C 158.316,207.908 162.982,207.742 167.5,207.5C 167.5,206.5 167.5,205.5 167.5,204.5C 169.103,204.688 170.437,204.188 171.5,203C 167.677,199.702 163.344,198.535 158.5,199.5C 156.615,198.391 154.615,197.557 152.5,197C 159.167,196.333 159.167,195.667 152.5,195C 153.252,194.329 153.586,193.496 153.5,192.5C 158.31,191.964 162.977,190.797 167.5,189C 182.861,188.554 198.195,187.721 213.5,186.5C 226.005,186.548 238.338,188.048 250.5,191C 254.167,191.667 257.833,191.667 261.5,191C 262.658,189.991 263.325,188.658 263.5,187C 262.457,179.52 262.291,172.02 263,164.5C 265.316,156.76 266.15,148.76 265.5,140.5 Z"/></g>
<g><path style="opacity:1" fill="#0a0a0a" d="M 76.5,241.5 C 74.5389,239.037 72.3722,236.703 70,234.5C 65.0771,224.063 60.7438,213.396 57,202.5C 56.0027,200.677 54.8361,199.01 53.5,197.5C 53.8039,194.628 53.9706,191.961 54,189.5C 54.5,190 55,190.5 55.5,191C 59.1516,191.499 62.8183,191.665 66.5,191.5C 68.4671,199.708 69.6338,208.041 70,216.5C 70.6543,215.304 71.1543,215.304 71.5,216.5C 68.9262,221.612 70.4262,224.945 76,226.5C 76.1001,229.437 76.9334,232.104 78.5,234.5C 75.9194,236.674 75.9194,238.84 78.5,241C 77.9056,241.464 77.2389,241.631 76.5,241.5 Z"/></g>
<g><path style="opacity:1" fill="#a5a5a5" d="M 311.5,195.5 C 312.167,195.5 312.833,195.5 313.5,195.5C 317.489,195.116 321.155,195.783 324.5,197.5C 324.249,199.17 323.582,200.67 322.5,202C 318.969,203.406 315.302,204.24 311.5,204.5C 310.167,204.5 308.833,204.5 307.5,204.5C 307.34,202.801 307.506,201.134 308,199.5C 309.376,198.295 310.542,196.962 311.5,195.5 Z"/></g>
<g><path style="opacity:1" fill="#464646" d="M 324.5,197.5 C 325.267,198.172 325.934,199.005 326.5,200C 323.864,201.41 323.197,203.243 324.5,205.5C 324.666,210.844 324.499,216.177 324,221.5C 320.726,228.386 317.226,235.053 313.5,241.5C 313.5,240.833 313.167,240.5 312.5,240.5C 312.961,238.45 313.628,236.45 314.5,234.5C 311.992,230.818 312.159,227.151 315,223.5C 316.05,218.552 316.55,213.552 316.5,208.5C 313.813,208.336 311.146,208.503 308.5,209C 307.619,209.708 306.953,210.542 306.5,211.5C 305.761,211.631 305.094,211.464 304.5,211C 306.037,209.89 306.703,208.39 306.5,206.5C 308.553,206.598 310.22,205.931 311.5,204.5C 315.302,204.24 318.969,203.406 322.5,202C 323.582,200.67 324.249,199.17 324.5,197.5 Z"/></g>
<g><path style="opacity:1" fill="#aaaaaa" d="M 271.5,241.5 C 271.334,246.844 271.501,252.177 272,257.5C 272.837,259.007 274.004,259.507 275.5,259C 279.165,255.702 280.498,251.535 279.5,246.5C 281.229,238.38 284.562,231.046 289.5,224.5C 290.649,224.791 291.316,225.624 291.5,227C 291.23,228.514 290.897,230.014 290.5,231.5C 292.352,236.702 292.852,242.036 292,247.5C 290.16,249.681 288.993,252.181 288.5,255C 288.833,255.833 289.167,256.667 289.5,257.5C 294.643,253.751 299.643,249.751 304.5,245.5C 307.084,241.307 307.584,236.974 306,232.5C 303.667,229.5 301.333,226.5 299,223.5C 298.444,221.115 298.61,218.782 299.5,216.5C 302.047,215.066 304.381,213.4 306.5,211.5C 306.953,210.542 307.619,209.708 308.5,209C 311.146,208.503 313.813,208.336 316.5,208.5C 316.55,213.552 316.05,218.552 315,223.5C 312.159,227.151 311.992,230.818 314.5,234.5C 313.628,236.45 312.961,238.45 312.5,240.5C 311.698,243.574 310.698,246.574 309.5,249.5C 306.192,253.097 304.859,257.431 305.5,262.5C 304.313,264.975 304.647,267.309 306.5,269.5C 304.5,269.5 303.5,270.5 303.5,272.5C 300.53,274.457 297.53,276.457 294.5,278.5C 292.995,279.842 292.328,281.508 292.5,283.5C 291.566,282.432 291.232,281.099 291.5,279.5C 288.5,279.5 285.5,279.5 282.5,279.5C 281.71,278.391 281.21,277.058 281,275.5C 279.173,279.281 278.173,283.281 278,287.5C 272.594,300.619 268.094,313.952 264.5,327.5C 253.126,350.534 236.459,368.867 214.5,382.5C 200.475,388.312 185.808,390.146 170.5,388C 162.403,387.762 154.403,386.762 146.5,385C 141.467,382.641 136.967,379.474 133,375.5C 126.547,366.234 120.381,356.901 114.5,347.5C 112.076,344.992 110.41,341.992 109.5,338.5C 105.639,330.911 101.972,323.244 98.5,315.5C 94.8354,304.158 91.5021,292.824 88.5,281.5C 87.8333,281.5 87.5,281.167 87.5,280.5C 88.1471,279.726 88.4805,278.726 88.5,277.5C 87.7544,268.853 87.2544,260.187 87,251.5C 86.6174,250.944 86.1174,250.611 85.5,250.5C 85.5,249.833 85.5,249.167 85.5,248.5C 99.8098,256.015 113.476,255.015 126.5,245.5C 130.519,234.461 135.353,223.795 141,213.5C 144.25,209.568 147.416,209.568 150.5,213.5C 153.181,219.864 156.014,226.197 159,232.5C 171.974,256.065 191.807,265.232 218.5,260C 228.667,256.5 235.5,249.667 239,239.5C 241.468,230.43 244.135,221.43 247,212.5C 249.543,209.249 251.71,205.749 253.5,202C 259.904,201.468 264.737,203.968 268,209.5C 266.354,220.529 267.52,231.196 271.5,241.5 Z"/></g>
<g><path style="opacity:1" fill="#8a8a8a" d="M 309.5,195.5 C 310.167,195.5 310.833,195.5 311.5,195.5C 310.542,196.962 309.376,198.295 308,199.5C 307.506,201.134 307.34,202.801 307.5,204.5C 308.833,204.5 310.167,204.5 311.5,204.5C 310.22,205.931 308.553,206.598 306.5,206.5C 306.703,208.39 306.037,209.89 304.5,211C 305.094,211.464 305.761,211.631 306.5,211.5C 304.381,213.4 302.047,215.066 299.5,216.5C 299.19,215.262 298.69,215.262 298,216.5C 297.303,219.573 295.47,221.573 292.5,222.5C 291.702,222.043 291.369,221.376 291.5,220.5C 291.751,218.83 292.418,217.33 293.5,216C 296.396,214.236 299.229,212.402 302,210.5C 303.847,205.093 306.347,200.093 309.5,195.5 Z"/></g>
<g><path style="opacity:1" fill="#9e9e9e" d="M 321.5,210.5 C 322.647,214.646 322.814,218.98 322,223.5C 320.376,225.158 318.709,226.825 317,228.5C 318.675,222.647 320.175,216.647 321.5,210.5 Z"/></g>
<g><path style="opacity:1" fill="#434343" d="M 299.5,216.5 C 298.61,218.782 298.444,221.115 299,223.5C 301.333,226.5 303.667,229.5 306,232.5C 307.584,236.974 307.084,241.307 304.5,245.5C 299.643,249.751 294.643,253.751 289.5,257.5C 289.167,256.667 288.833,255.833 288.5,255C 288.993,252.181 290.16,249.681 292,247.5C 292.852,242.036 292.352,236.702 290.5,231.5C 290.897,230.014 291.23,228.514 291.5,227C 291.316,225.624 290.649,224.791 289.5,224.5C 289.989,223.005 290.655,221.671 291.5,220.5C 291.369,221.376 291.702,222.043 292.5,222.5C 295.47,221.573 297.303,219.573 298,216.5C 298.69,215.262 299.19,215.262 299.5,216.5 Z"/></g>
<g><path style="opacity:1" fill="#1a1a1a" d="M 312.5,240.5 C 313.167,240.5 313.5,240.833 313.5,241.5C 313.5,242.833 313.5,244.167 313.5,245.5C 315.655,245.628 317.655,245.128 319.5,244C 320.892,240.619 323.225,239.786 326.5,241.5C 328.403,245.992 329.236,250.659 329,255.5C 326.608,261.226 322.774,265.726 317.5,269C 313.777,271.934 310.11,272.101 306.5,269.5C 304.647,267.309 304.313,264.975 305.5,262.5C 306.167,262.167 306.833,261.833 307.5,261.5C 307.286,263.144 307.62,264.644 308.5,266C 315.951,266.969 319.617,263.802 319.5,256.5C 316.119,256.54 312.786,256.207 309.5,255.5C 309.5,253.5 309.5,251.5 309.5,249.5C 310.698,246.574 311.698,243.574 312.5,240.5 Z"/></g>
<g><path style="opacity:1" fill="#3f3f3f" d="M 271.5,241.5 C 272.537,243.896 273.87,246.229 275.5,248.5C 276.325,249.386 277.325,249.719 278.5,249.5C 278.263,248.209 278.596,247.209 279.5,246.5C 280.498,251.535 279.165,255.702 275.5,259C 274.004,259.507 272.837,259.007 272,257.5C 271.501,252.177 271.334,246.844 271.5,241.5 Z"/></g>
<g><path style="opacity:1" fill="#f0f0f0" d="M 309.5,255.5 C 312.786,256.207 316.119,256.54 319.5,256.5C 319.617,263.802 315.951,266.969 308.5,266C 307.62,264.644 307.286,263.144 307.5,261.5C 309.074,259.898 309.741,257.898 309.5,255.5 Z"/></g>
<g><path style="opacity:1" fill="#777777" d="M 309.5,249.5 C 309.5,251.5 309.5,253.5 309.5,255.5C 309.741,257.898 309.074,259.898 307.5,261.5C 306.833,261.833 306.167,262.167 305.5,262.5C 304.859,257.431 306.192,253.097 309.5,249.5 Z"/></g>
<g><path style="opacity:1" fill="#585858" d="M 119.5,275.5 C 118.191,274.376 117.525,272.876 117.5,271C 117.836,267.962 118.669,265.128 120,262.5C 119.709,266.774 119.543,271.107 119.5,275.5 Z"/></g>
<g><path style="opacity:1" fill="#5b5b5b" d="M 85.5,250.5 C 86.1174,250.611 86.6174,250.944 87,251.5C 87.2544,260.187 87.7544,268.853 88.5,277.5C 88.4805,278.726 88.1471,279.726 87.5,280.5C 86.0137,270.568 85.3471,260.568 85.5,250.5 Z"/></g>
<g><path style="opacity:1" fill="#8c8c8c" d="M 161.5,281.5 C 161.389,280.883 161.056,280.383 160.5,280C 156.442,279.233 152.442,279.4 148.5,280.5C 147.33,281.694 147.663,282.361 149.5,282.5C 144.584,285.231 139.25,286.065 133.5,285C 130.673,283.377 127.673,282.21 124.5,281.5C 122.062,280.069 120.396,278.069 119.5,275.5C 122.652,278.658 126.486,280.325 131,280.5C 137.936,279.391 144.769,277.891 151.5,276C 158.536,275.28 165.536,275.447 172.5,276.5C 172.335,273.482 172.502,270.482 173,267.5C 174.856,271.407 174.856,275.407 173,279.5C 169.333,280.741 165.5,281.408 161.5,281.5 Z"/></g>
<g><path style="opacity:1" fill="#bebebe" d="M 303.5,272.5 C 301.498,275.334 298.998,277.667 296,279.5C 294.892,283.086 294.392,286.753 294.5,290.5C 292.265,290.795 290.265,290.461 288.5,289.5C 290.167,289.5 291.833,289.5 293.5,289.5C 293.768,287.901 293.434,286.568 292.5,285.5C 292.5,284.833 292.5,284.167 292.5,283.5C 292.328,281.508 292.995,279.842 294.5,278.5C 297.53,276.457 300.53,274.457 303.5,272.5 Z"/></g>
<g><path style="opacity:1" fill="#595959" d="M 161.5,281.5 C 157.4,281.237 153.4,281.57 149.5,282.5C 147.663,282.361 147.33,281.694 148.5,280.5C 152.442,279.4 156.442,279.233 160.5,280C 161.056,280.383 161.389,280.883 161.5,281.5 Z"/></g>
<g><path style="opacity:1" fill="#262626" d="M 282.5,279.5 C 285.5,279.5 288.5,279.5 291.5,279.5C 291.232,281.099 291.566,282.432 292.5,283.5C 292.5,284.167 292.5,284.833 292.5,285.5C 292.5,286.5 292.5,287.5 292.5,288.5C 289.43,288.632 286.43,288.299 283.5,287.5C 282.833,287.167 282.167,286.833 281.5,286.5C 279.966,283.856 280.299,281.523 282.5,279.5 Z"/></g>
<g><path style="opacity:1" fill="#8c8c8c" d="M 187.5,282.5 C 195.414,284.798 202.081,289.131 207.5,295.5C 207,295.833 206.5,296.167 206,296.5C 201.167,294.833 196.333,293.167 191.5,291.5C 189.329,289.828 187.329,287.995 185.5,286C 185.978,284.697 186.645,283.531 187.5,282.5 Z"/></g>
<g><path style="opacity:1" fill="#696969" d="M 292.5,285.5 C 293.434,286.568 293.768,287.901 293.5,289.5C 291.833,289.5 290.167,289.5 288.5,289.5C 286.708,289.634 285.042,289.301 283.5,288.5C 283.5,288.167 283.5,287.833 283.5,287.5C 286.43,288.299 289.43,288.632 292.5,288.5C 292.5,287.5 292.5,286.5 292.5,285.5 Z"/></g>
<g><path style="opacity:1" fill="#cccccc" d="M 281.5,286.5 C 282.167,286.833 282.833,287.167 283.5,287.5C 283.5,287.833 283.5,288.167 283.5,288.5C 282.107,291.252 280.107,293.586 277.5,295.5C 276.996,291.519 278.329,288.519 281.5,286.5 Z"/></g>
<g><path style="opacity:1" fill="#5e5e5e" d="M 88.5,281.5 C 91.5021,292.824 94.8354,304.158 98.5,315.5C 93.0391,304.915 89.7058,293.581 88.5,281.5 Z"/></g>
<g><path style="opacity:1" fill="#818181" d="M 205.5,304.5 C 182.661,304.831 159.994,304.497 137.5,303.5C 154.374,302.787 171.207,301.454 188,299.5C 191.198,299.591 194.365,299.924 197.5,300.5C 199.991,302.412 202.658,303.746 205.5,304.5 Z"/></g>
<g><path style="opacity:1" fill="#545454" d="M 137.5,303.5 C 159.994,304.497 182.661,304.831 205.5,304.5C 208.167,305.167 208.167,305.833 205.5,306.5C 203.037,306.781 200.87,307.781 199,309.5C 198.768,308.263 198.268,307.263 197.5,306.5C 177.673,306.348 157.673,306.181 137.5,306C 133.888,304.85 130.222,304.017 126.5,303.5C 124.574,302.514 122.574,301.514 120.5,300.5C 119.115,299.698 119.282,299.031 121,298.5C 126.301,300.879 131.801,302.545 137.5,303.5 Z"/></g>
<g><path style="opacity:1" fill="#f6f6f6" d="M 126.5,303.5 C 130.222,304.017 133.888,304.85 137.5,306C 157.673,306.181 177.673,306.348 197.5,306.5C 197.719,307.675 197.386,308.675 196.5,309.5C 195.476,308.147 194.143,307.48 192.5,307.5C 193.557,312.106 192.057,315.44 188,317.5C 187.228,317.355 186.561,317.022 186,316.5C 185.667,314.833 185.333,313.167 185,311.5C 184.955,314.334 184.121,316.834 182.5,319C 178.338,318.594 174.338,318.761 170.5,319.5C 165.249,319.97 160.083,320.97 155,322.5C 151.888,321.517 148.722,320.85 145.5,320.5C 139.178,320.007 133.678,317.673 129,313.5C 128.853,309.912 128.02,306.579 126.5,303.5 Z"/></g>
<g><path style="opacity:1" fill="#7e7e7e" d="M 120.5,300.5 C 122.574,301.514 124.574,302.514 126.5,303.5C 128.02,306.579 128.853,309.912 129,313.5C 133.678,317.673 139.178,320.007 145.5,320.5C 145.082,321.222 144.416,321.722 143.5,322C 152.126,325.229 160.792,325.229 169.5,322C 171.392,321.027 173.392,320.36 175.5,320C 173.866,319.506 172.199,319.34 170.5,319.5C 174.338,318.761 178.338,318.594 182.5,319C 184.121,316.834 184.955,314.334 185,311.5C 185.333,313.167 185.667,314.833 186,316.5C 186.561,317.022 187.228,317.355 188,317.5C 192.057,315.44 193.557,312.106 192.5,307.5C 194.143,307.48 195.476,308.147 196.5,309.5C 197.386,308.675 197.719,307.675 197.5,306.5C 198.268,307.263 198.768,308.263 199,309.5C 200.87,307.781 203.037,306.781 205.5,306.5C 204.104,311.251 201.437,315.251 197.5,318.5C 183.001,330.461 166.334,335.628 147.5,334C 141.65,332.376 136.483,329.542 132,325.5C 127.628,319.042 123.628,312.375 120,305.5C 119.36,303.735 119.527,302.068 120.5,300.5 Z"/></g>
<g><path style="opacity:1" fill="#464646" d="M 170.5,319.5 C 172.199,319.34 173.866,319.506 175.5,320C 173.392,320.36 171.392,321.027 169.5,322C 160.792,325.229 152.126,325.229 143.5,322C 144.416,321.722 145.082,321.222 145.5,320.5C 148.722,320.85 151.888,321.517 155,322.5C 160.083,320.97 165.249,319.97 170.5,319.5 Z"/></g>
<g><path style="opacity:1" fill="#606060" d="M 98.5,315.5 C 101.972,323.244 105.639,330.911 109.5,338.5C 103.988,331.806 100.321,324.139 98.5,315.5 Z"/></g>
<g><path style="opacity:1" fill="#919191" d="M 264.5,327.5 C 265.228,339.025 265.895,350.691 266.5,362.5C 262.434,365.584 259.434,369.584 257.5,374.5C 252.245,380.724 247.078,387.057 242,393.5C 239.086,395.178 236.586,397.178 234.5,399.5C 202.167,399.5 169.833,399.5 137.5,399.5C 134.091,395.695 131.425,391.361 129.5,386.5C 128.423,385.295 127.09,384.628 125.5,384.5C 128.309,382.237 130.142,379.237 131,375.5C 138.542,383.852 148.042,388.352 159.5,389C 172.805,390.443 186.138,390.777 199.5,390C 210.161,386.837 219.828,381.837 228.5,375C 235.97,368.532 243.136,361.698 250,354.5C 255.975,346.048 260.808,337.048 264.5,327.5 Z"/></g>
<g><path style="opacity:1" fill="#4e4e4e" d="M 282.5,279.5 C 280.299,281.523 279.966,283.856 281.5,286.5C 278.329,288.519 276.996,291.519 277.5,295.5C 275.303,302.236 272.803,308.903 270,315.5C 267.537,328.374 266.87,341.374 268,354.5C 271.974,357.069 275.14,360.403 277.5,364.5C 277.5,365.167 277.167,365.5 276.5,365.5C 274.706,363.203 272.706,361.037 270.5,359C 269.517,358.409 268.85,358.743 268.5,360C 270.119,365.74 271.286,371.573 272,377.5C 275.188,384.563 277.688,391.896 279.5,399.5C 278.833,399.5 278.167,399.5 277.5,399.5C 277.579,396.729 277.079,394.063 276,391.5C 270.788,382.416 267.621,372.75 266.5,362.5C 265.895,350.691 265.228,339.025 264.5,327.5C 268.094,313.952 272.594,300.619 278,287.5C 278.173,283.281 279.173,279.281 281,275.5C 281.21,277.058 281.71,278.391 282.5,279.5 Z"/></g>
<g><path style="opacity:1" fill="#a9a9a9" d="M 266.5,362.5 C 267.621,372.75 270.788,382.416 276,391.5C 277.079,394.063 277.579,396.729 277.5,399.5C 263.167,399.5 248.833,399.5 234.5,399.5C 236.586,397.178 239.086,395.178 242,393.5C 247.078,387.057 252.245,380.724 257.5,374.5C 259.434,369.584 262.434,365.584 266.5,362.5 Z"/></g>
<g><path style="opacity:1" fill="#aeaeae" d="M 276.5,365.5 C 279.503,369.343 282.336,373.343 285,377.5C 292.406,384.402 299.239,391.735 305.5,399.5C 296.833,399.5 288.167,399.5 279.5,399.5C 277.688,391.896 275.188,384.563 272,377.5C 271.286,371.573 270.119,365.74 268.5,360C 268.85,358.743 269.517,358.409 270.5,359C 272.706,361.037 274.706,363.203 276.5,365.5 Z"/></g>
<g><path style="opacity:1" fill="#545454" d="M 264.5,327.5 C 260.808,337.048 255.975,346.048 250,354.5C 243.136,361.698 235.97,368.532 228.5,375C 219.828,381.837 210.161,386.837 199.5,390C 186.138,390.777 172.805,390.443 159.5,389C 148.042,388.352 138.542,383.852 131,375.5C 130.142,379.237 128.309,382.237 125.5,384.5C 124.761,384.369 124.094,384.536 123.5,385C 118.767,388.85 116.1,393.683 115.5,399.5C 114.833,399.5 114.167,399.5 113.5,399.5C 114.554,391.57 118.721,385.57 126,381.5C 127.277,377.903 127.61,374.236 127,370.5C 125.414,367.659 123.58,364.993 121.5,362.5C 104.256,374.61 87.2557,386.943 70.5,399.5C 69.5,399.5 68.5,399.5 67.5,399.5C 84.5388,386.309 102.039,373.643 120,361.5C 120.667,360.5 120.667,359.5 120,358.5C 117.628,355.09 115.795,351.423 114.5,347.5C 120.381,356.901 126.547,366.234 133,375.5C 136.967,379.474 141.467,382.641 146.5,385C 154.403,386.762 162.403,387.762 170.5,388C 185.808,390.146 200.475,388.312 214.5,382.5C 236.459,368.867 253.126,350.534 264.5,327.5 Z"/></g>
<g><path style="opacity:1" fill="#adadad" d="M 113.5,399.5 C 109.5,399.5 105.5,399.5 101.5,399.5C 104.146,395.557 106.813,391.557 109.5,387.5C 104.726,389.96 101.059,393.96 98.5,399.5C 89.1667,399.5 79.8333,399.5 70.5,399.5C 87.2557,386.943 104.256,374.61 121.5,362.5C 123.58,364.993 125.414,367.659 127,370.5C 127.61,374.236 127.277,377.903 126,381.5C 118.721,385.57 114.554,391.57 113.5,399.5 Z"/></g>
<g><path style="opacity:1" fill="#797979" d="M 277.5,364.5 C 286.058,375.234 295.225,385.567 305,395.5C 305.791,396.745 306.291,398.078 306.5,399.5C 306.167,399.5 305.833,399.5 305.5,399.5C 299.239,391.735 292.406,384.402 285,377.5C 282.336,373.343 279.503,369.343 276.5,365.5C 277.167,365.5 277.5,365.167 277.5,364.5 Z"/></g>
<g><path style="opacity:1" fill="#a9a9a9" d="M 125.5,384.5 C 127.09,384.628 128.423,385.295 129.5,386.5C 131.425,391.361 134.091,395.695 137.5,399.5C 130.167,399.5 122.833,399.5 115.5,399.5C 116.1,393.683 118.767,388.85 123.5,385C 124.094,384.536 124.761,384.369 125.5,384.5 Z"/></g>
<g><path style="opacity:1" fill="#707070" d="M 101.5,399.5 C 100.5,399.5 99.5,399.5 98.5,399.5C 101.059,393.96 104.726,389.96 109.5,387.5C 106.813,391.557 104.146,395.557 101.5,399.5 Z"/></g>
</svg>
